<svg xmlns="http://www.w3.org/2000/svg" width="30" height="19" viewBox="0 0 30 19">
  <g id="Vector_Smart_Object_copy" data-name="Vector Smart Object copy" transform="translate(-1002 -1610)">
    <g id="Vector_Smart_Object_copy-2" data-name="Vector Smart Object copy" transform="translate(1001.992 1604.483)">
      <path id="Контур_23" data-name="Контур 23" d="M16.785,6.518a6.76,6.76,0,0,1,6.751,6.755c0,.021,0,.042,0,.063,0,.05-.007.1-.008.15L23.5,14.508l1.023,0a4.5,4.5,0,0,1,.008,9H6.005a5,5,0,0,1-1.617-9.733l.563-.192L5.05,13a2.987,2.987,0,0,1,4.3-2.176l.912.458.44-.921a6.786,6.786,0,0,1,6.086-3.848Zm0-1A7.744,7.744,0,0,0,9.8,9.933a3.989,3.989,0,0,0-5.732,2.9A6,6,0,0,0,6,24.517H24.536a5.5,5.5,0,0,0-.012-11c0-.08.012-.158.012-.237a7.753,7.753,0,0,0-7.751-7.756h0Z"/>
    </g>
    <path id="Color_Overlay" data-name="Color Overlay" d="M1002,1623a6,6,0,0,1,4.055-5.677,4,4,0,0,1,3.94-3.332,3.958,3.958,0,0,1,1.792.428,7.743,7.743,0,0,1,6.988-4.416h0a7.753,7.753,0,0,1,7.751,7.755c0,.08-.01.157-.013.238a5.5,5.5,0,0,1,.013,11.005H1008A6,6,0,0,1,1002,1623Zm5.042-5.51-.1.587-.562.193A5,5,0,0,0,1008,1628h18.526a4.5,4.5,0,0,0-.009-9l-1.023,0,.025-1.021c0-.05.005-.1.008-.15,0-.021,0-.042,0-.063a6.759,6.759,0,0,0-6.751-6.755h0a6.786,6.786,0,0,0-6.086,3.847l-.44.921-.912-.457a2.958,2.958,0,0,0-1.342-.322A2.989,2.989,0,0,0,1007.042,1617.487Z" fill="#e84c3d"/>
  </g>
</svg>
