<svg xmlns="http://www.w3.org/2000/svg" width="26" height="25.001" viewBox="0 0 26 25.001">
  <g id="Vector_Smart_Object" data-name="Vector Smart Object" transform="translate(-686 -1607)">
    <g id="Vector_Smart_Object-2" data-name="Vector Smart Object" transform="translate(682.744 1603.869)">
      <path id="Контур_7" data-name="Контур 7" d="M3.256,3.131v25h26v-25ZM28.172,4.173V8.86H4.34V4.173ZM4.339,27.09V9.9H28.172V27.09Z"/>
      <path id="Контур_8" data-name="Контур 8" d="M11.381,5.736h1.626V7.3H11.381Z"/>
      <path id="Контур_9" data-name="Контур 9" d="M19.507,5.736h1.625V7.3H19.507Z"/>
      <path id="Контур_10" data-name="Контур 10" d="M12.546,13.608c-.194,1.267-.821,1.29-2.083,1.334l-.2.007v.883H12.4v5.778h1.134V13.441H12.57l-.025.167Z"/>
      <path id="Контур_11" data-name="Контур 11" d="M18.942,16.063a2.7,2.7,0,0,0-1.432.423l.385-1.91h3.572V13.541H17.051l-.862,4.425h.979l.061-.091a1.97,1.97,0,0,1,1.632-.833,1.787,1.787,0,0,1,1.865,1.829,1.819,1.819,0,0,1-1.82,1.926,1.665,1.665,0,0,1-1.784-1.611l-.005-.19H15.985l.005.2a2.623,2.623,0,0,0,2.862,2.58,2.892,2.892,0,0,0,3.01-2.827,2.748,2.748,0,0,0-2.92-2.886Z"/>
    </g>
    <path id="Color_Overlay" data-name="Color Overlay" d="M686,1632v-25h26v25Zm1.084-1.041h23.833v-17.187H687.083Zm0-18.23h23.832v-4.687H687.084Zm11.65,10.336-.005-.2h1.133l.005.19a1.665,1.665,0,0,0,1.784,1.611,1.819,1.819,0,0,0,1.82-1.926,1.788,1.788,0,0,0-1.866-1.829,1.973,1.973,0,0,0-1.632.833l-.06.091h-.98l.862-4.424h4.416v1.036h-3.572l-.385,1.91a2.7,2.7,0,0,1,1.431-.423h0a2.748,2.748,0,0,1,2.92,2.885,2.893,2.893,0,0,1-3.01,2.828A2.623,2.623,0,0,1,698.734,1623.064Zm-3.586,2.414V1619.7h-2.138v-.884l.2-.006c1.262-.044,1.888-.067,2.083-1.334h0l.025-.167h.968v8.168Zm7.1-14.311V1609.6h1.624v1.562Zm-8.126,0V1609.6h1.625v1.562Z" fill="#e84c3d"/>
  </g>
</svg>
