<svg xmlns="http://www.w3.org/2000/svg" width="25" height="27" viewBox="0 0 25 27">
  <g id="Vector_Smart_Object" data-name="Vector Smart Object" transform="translate(-683 -1469)">
    <g id="Vector_Smart_Object-2" data-name="Vector Smart Object" transform="translate(679.19 1466.917)">
      <path id="Контур_17" data-name="Контур 17" d="M16.311,2.083c-6.9,0-12.5,2.558-12.5,5.712V23.373c0,3.154,5.6,5.71,12.5,5.71s12.5-2.557,12.5-5.71V7.8C28.811,4.641,23.213,2.083,16.311,2.083Zm0,1.038c6.726,0,11.412,2.463,11.412,4.674s-4.686,4.673-11.412,4.673S4.9,10.005,4.9,7.8,9.584,3.122,16.311,3.122ZM27.723,22.335v1.037c0,2.21-4.686,4.673-11.412,4.673S4.9,25.582,4.9,23.372V20.509C6.848,22.5,11.223,23.89,16.311,23.89s9.462-1.39,11.412-3.382v1.826Zm0-4.155c0,2.211-4.686,4.673-11.412,4.673S4.9,20.391,4.9,18.18V15.315C6.848,17.309,11.223,18.7,16.311,18.7s9.462-1.389,11.412-3.383Zm0-5.192c0,2.21-4.686,4.673-11.412,4.673S4.9,15.2,4.9,12.988V10.123c1.951,1.993,6.325,3.383,11.413,3.383s9.462-1.39,11.412-3.383Z"/>
    </g>
    <path id="Color_Overlay" data-name="Color Overlay" d="M683,1490.289v-15.577c0-3.155,5.6-5.712,12.5-5.712s12.5,2.558,12.5,5.712v15.577c0,3.154-5.6,5.711-12.5,5.711S683,1493.443,683,1490.289Zm1.087,0c0,2.209,4.687,4.673,11.413,4.673s11.412-2.463,11.412-4.673v-2.864c-1.949,1.992-6.325,3.382-11.412,3.382s-9.462-1.391-11.413-3.382Zm0-5.192c0,2.21,4.687,4.673,11.413,4.673s11.412-2.462,11.412-4.673v-2.865c-1.949,1.993-6.325,3.383-11.412,3.383s-9.462-1.39-11.413-3.383Zm0-5.192c0,2.209,4.687,4.673,11.413,4.673s11.412-2.463,11.412-4.673v-2.865c-1.949,1.993-6.325,3.383-11.412,3.383s-9.462-1.391-11.413-3.383Zm0-5.192c0,2.209,4.687,4.673,11.413,4.673s11.412-2.463,11.412-4.673-4.686-4.675-11.412-4.675S684.087,1472.5,684.087,1474.712Z" fill="#e84c3d"/>
  </g>
</svg>
