<svg xmlns="http://www.w3.org/2000/svg" width="232.499" height="83.535" viewBox="0 0 232.499 83.535">
  <g id="logo" transform="translate(-347.013 -23.995)">
    <text id="NINE_CLOUD_HOSTING_" data-name="NINE CLOUD HOSTING

" transform="translate(503.512 54.53)" fill="#fff" font-size="16" font-family="PTSans-Bold, PT Sans" font-weight="700"><tspan x="-75.96" y="0">NINE CLOUD </tspan><tspan y="0" fill="#e84c3d">HOSTING</tspan><tspan x="0" y="24.064"></tspan><tspan font-family="PTSans-Bold"><tspan x="0" y="48.128"></tspan></tspan></text>
    <g id="Group_15" data-name="Group 15">
      <path id="_9_copy_3" data-name="9 copy 3" d="M374.345,54.554a9.717,9.717,0,0,1-3.328-.088l-.446,5.284a14.347,14.347,0,0,0,10.005-1.882,12.717,12.717,0,0,0,5.975-8.3,15.854,15.854,0,0,0,0-6.574,31.782,31.782,0,0,0-3.128-8.513,24.827,24.827,0,0,0-5.856-7.69q-6.006-5.062-12.874-.96a12.139,12.139,0,0,0-5.628,7,11.644,11.644,0,0,0,.963,9.028,10.627,10.627,0,0,0,6.347,5.782,9.418,9.418,0,0,0,7.851-1.085,10.678,10.678,0,0,0,3.7-3.622,13.192,13.192,0,0,0,1.757-4.077,15.963,15.963,0,0,1,2,8.608,7.837,7.837,0,0,1-4.177,6.128A8.011,8.011,0,0,1,374.345,54.554Zm-6.555-12.29a6.636,6.636,0,0,1-3.913-8.015,6.83,6.83,0,0,1,3.165-3.88,5.82,5.82,0,0,1,4.856-.681A5.925,5.925,0,0,1,375.57,32.8a5.819,5.819,0,0,1,.311,4.832,7.542,7.542,0,0,1-3.372,3.946A5.4,5.4,0,0,1,367.79,42.264Z" fill="#e84c3d"/>
      <path id="_9_copy_4" data-name="9 copy 4" d="M372.6,44.432a10.631,10.631,0,0,0-1.268-2.95l3.894-2.306a15.927,15.927,0,0,1,2.165,9.644,11.489,11.489,0,0,1-9.258,10.718,23.5,23.5,0,0,1-7.661.269,19.88,19.88,0,0,1-8.014-2.473q-6.052-3.556-5.381-11.189a11.555,11.555,0,0,1,3.338-7.566,8.658,8.658,0,0,1,7.275-2.394,9.171,9.171,0,0,1,6.727,3.6,10.4,10.4,0,0,1,2,7.426,10.661,10.661,0,0,1-1.445,4.62,11.23,11.23,0,0,1-2.5,3.045,11.74,11.74,0,0,0,7.328-1.311q2.825-1.728,3.2-5.953A8.913,8.913,0,0,0,372.6,44.432Zm-11.8-1.44a5.286,5.286,0,0,0-3.689-1.96,4.594,4.594,0,0,0-3.873,1.345,6.518,6.518,0,0,0-1.836,4.236,6.427,6.427,0,0,0,1.23,4.6,5.174,5.174,0,0,0,3.713,2.169,4.353,4.353,0,0,0,3.82-1.465,7.26,7.26,0,0,0,1.812-4.445A5.955,5.955,0,0,0,360.807,42.993Z" fill="#fff"/>
      <path id="_9_copy_6" data-name="9 copy 6" d="M381.8,47.1a8.813,8.813,0,0,1,1.051-2.444l-3.226-1.91a13.2,13.2,0,0,0-1.794,7.99,9.519,9.519,0,0,0,7.671,8.88,19.449,19.449,0,0,0,6.347.222,16.482,16.482,0,0,0,6.64-2.049q5.014-2.946,4.458-9.271a9.573,9.573,0,0,0-2.766-6.269,7.172,7.172,0,0,0-6.027-1.984,7.6,7.6,0,0,0-5.573,2.984,8.618,8.618,0,0,0-1.656,6.153,8.835,8.835,0,0,0,1.2,3.827,9.31,9.31,0,0,0,2.067,2.523,9.729,9.729,0,0,1-6.072-1.086,5.974,5.974,0,0,1-2.648-4.932A7.38,7.38,0,0,1,381.8,47.1Zm9.773-1.193a4.383,4.383,0,0,1,3.056-1.624,3.808,3.808,0,0,1,3.209,1.114,5.4,5.4,0,0,1,1.521,3.51,5.326,5.326,0,0,1-1.019,3.808,4.286,4.286,0,0,1-3.076,1.8A3.607,3.607,0,0,1,392.1,53.3a6.016,6.016,0,0,1-1.5-3.682A4.933,4.933,0,0,1,391.57,45.906Z" fill="#fff"/>
      <path id="_9_copy_5" data-name="9 copy 5" d="M378.838,53.2a9.078,9.078,0,0,1-1.71-2.256l-3.24,2.5a12.681,12.681,0,0,0,6.361,5.647,8.969,8.969,0,0,0,7.878-.421,11.311,11.311,0,0,0,3.737-3.477,25.28,25.28,0,0,0,3.186-6.578,21.863,21.863,0,0,0,1.276-7.954q-.3-6.665-6.262-9.054a8.355,8.355,0,0,0-11.577,5.376,9.771,9.771,0,0,0,.069,7.271,8.426,8.426,0,0,0,4.769,4.638,7.8,7.8,0,0,0,4.015.539,9,9,0,0,0,3.247-.989,12.169,12.169,0,0,1-3.835,5.881,5.516,5.516,0,0,1-5.693.468A6.858,6.858,0,0,1,378.838,53.2Zm3.521-10.851a5.646,5.646,0,0,1-.027-3.981,4.531,4.531,0,0,1,2.514-2.854,4.865,4.865,0,0,1,3.88.049,5.205,5.205,0,0,1,2.954,2.864,5.48,5.48,0,0,1,.173,4.084,4.245,4.245,0,0,1-2.583,2.761,5.394,5.394,0,0,1-4.027-.152A4.825,4.825,0,0,1,382.359,42.348Z" fill="#fff"/>
    </g>
  </g>
</svg>
