<svg xmlns="http://www.w3.org/2000/svg" width="19" height="36" viewBox="0 0 19 36">
  <g id="Vector_Smart_Object" data-name="Vector Smart Object" transform="translate(-9.507 -0.007)" opacity="0.4">
    <path id="Контур_26" data-name="Контур 26" d="M19.64,9.636V7.783c0-.548,1.222-1.273,2.2-1.856,1.405-.834,2.862-1.7,2.862-2.957V.007H23.44V2.97c0,.593-1.257,1.339-2.268,1.939-1.376.816-2.8,1.66-2.8,2.872V9.635c-4.95.3-8.867,4.081-8.867,8.71v8.922c0,4.827,4.253,8.739,9.5,8.739s9.5-3.912,9.5-8.739V18.345c0-4.63-3.917-8.41-8.867-8.71Zm7.6,8.71v.861h-7.6V10.836C23.883,11.134,27.242,14.385,27.242,18.346Zm-16.468,0c0-3.962,3.356-7.212,7.6-7.51v8.371h-7.6Zm8.234,16.461c-4.539,0-8.234-3.382-8.234-7.538V20.407H27.239v6.862c0,4.156-3.694,7.538-8.234,7.538Z"/>
  </g>
</svg>
