<svg xmlns="http://www.w3.org/2000/svg" width="26" height="25" viewBox="0 0 26 25">
  <g id="Vector_Smart_Object" data-name="Vector Smart Object" transform="translate(-3.52 -3.384)" opacity="0.4">
    <path id="Контур_25" data-name="Контур 25" d="M29.52,27.075l-7.5-7.211a9.782,9.782,0,0,0,2.415-6.424A10.262,10.262,0,0,0,13.978,3.384,10.263,10.263,0,0,0,3.52,13.44,10.264,10.264,0,0,0,13.978,23.5a10.663,10.663,0,0,0,6.681-2.322l7.5,7.211ZM4.62,13.44a9.193,9.193,0,0,1,9.358-9,9.2,9.2,0,0,1,9.359,9,9.2,9.2,0,0,1-9.359,9A9.194,9.194,0,0,1,4.62,13.44Z"/>
  </g>
</svg>
