<svg xmlns="http://www.w3.org/2000/svg" width="22" height="27" viewBox="0 0 22 27">
  <g id="Vector_Smart_Object" data-name="Vector Smart Object" transform="translate(-364 -1604)">
    <g id="Vector_Smart_Object-2" data-name="Vector Smart Object" transform="translate(358.494 1601.917)">
      <path id="Контур_19" data-name="Контур 19" d="M23.658,15.064V8.834a6.96,6.96,0,0,0-7.15-6.75,6.96,6.96,0,0,0-7.151,6.75v6.231H5.506V29.083h22V15.065H23.658Zm-13.2-6.231a5.9,5.9,0,0,1,6.051-5.711,5.893,5.893,0,0,1,6.047,5.711v6.231h-12.1V8.833ZM26.406,28.045H6.607V16.1h19.8Z"/>
    </g>
    <path id="Color_Overlay" data-name="Color Overlay" d="M364,1631v-14.018h3.849v-6.232a7.163,7.163,0,0,1,14.3,0v6.231H386V1631Zm1.1-1.039h19.8v-11.942H365.1Zm3.848-12.981h12.1v-6.232a6.059,6.059,0,0,0-12.1,0h0Z" fill="#e84c3d"/>
  </g>
</svg>
