<svg xmlns="http://www.w3.org/2000/svg" width="27" height="23" viewBox="0 0 27 23">
  <g id="Vector_Smart_Object" data-name="Vector Smart Object" transform="translate(-361 -1472)">
    <g id="Vector_Smart_Object-2" data-name="Vector Smart Object" transform="translate(358.294 1468.104)">
      <path id="Контур_21" data-name="Контур 21" d="M22.169,4.922a6.3,6.3,0,0,1,6.457,6.135,5.972,5.972,0,0,1-1.989,4.426l-10.43,9.958L5.588,15.3a5.954,5.954,0,0,1-1.8-4.246,6.3,6.3,0,0,1,6.458-6.135A6.47,6.47,0,0,1,16.207,8.7a6.469,6.469,0,0,1,5.962-3.776Zm0-1.026a7.667,7.667,0,0,0-5.963,2.775A7.663,7.663,0,0,0,10.244,3.9a7.365,7.365,0,0,0-7.538,7.161,6.944,6.944,0,0,0,2.1,4.957L16.206,26.9,27.4,16.207a6.919,6.919,0,0,0,2.3-5.15A7.365,7.365,0,0,0,22.169,3.9h0Z"/>
    </g>
    <path id="Color_Overlay" data-name="Color Overlay" d="M363.1,1484.118a6.944,6.944,0,0,1-2.1-4.957,7.365,7.365,0,0,1,7.538-7.16,7.663,7.663,0,0,1,5.962,2.775,7.667,7.667,0,0,1,5.963-2.775h0a7.365,7.365,0,0,1,7.537,7.16,6.919,6.919,0,0,1-2.3,5.15L374.5,1495Zm-1.021-4.957a5.953,5.953,0,0,0,1.8,4.246l10.619,10.138,10.43-9.958a5.971,5.971,0,0,0,1.989-4.426,6.3,6.3,0,0,0-6.457-6.134,6.469,6.469,0,0,0-5.962,3.775,6.468,6.468,0,0,0-5.962-3.775A6.3,6.3,0,0,0,362.081,1479.161Z" fill="#e84c3d"/>
  </g>
</svg>
